<svg xmlns="http://www.w3.org/2000/svg" xmlns:xlink="http://www.w3.org/1999/xlink" version="1.1" x="0px" y="0px" viewBox="0 0 100 125" enable-background="new 0 0 100 100" xml:space="preserve"><path d="M31.961,48.041L20.272,36.737c-0.694-0.351-1.53-0.306-2.195,0.092C17.406,37.225,17,37.934,17,38.696V46H8.75  C6.679,46,5,47.929,5,50c0,2.071,1.679,4,3.75,4H17v7.306c0,0.76,0.406,1.471,1.077,1.867c0.358,0.214,0.769,0.327,1.18,0.327  c0.347,0,0.695-0.079,1.015-0.235l11.689-11.304C32.655,51.313,33.2,50.83,33.2,50C33.2,49.172,32.735,48.721,31.961,48.041z"/><path d="M68.039,51.959l11.689,11.304c0.694,0.351,1.53,0.306,2.195-0.092C82.594,62.775,83,62.066,83,61.304V54h8.25  c2.071,0,3.75-1.929,3.75-4c0-2.071-1.679-4-3.75-4H83v-7.306c0-0.76-0.406-1.471-1.077-1.867c-0.358-0.214-0.769-0.327-1.18-0.327  c-0.347,0-0.695,0.079-1.015,0.235L68.039,48.038C67.345,48.687,66.8,49.17,66.8,50C66.8,50.828,67.265,51.279,68.039,51.959z"/><g><path d="M30.052,94.001c-0.381,0-0.768-0.055-1.151-0.17c-2.116-0.635-3.317-2.864-2.682-4.98c0.639-2.129,1.317-4.293,2.003-6.484   C31.58,71.654,35.051,60.577,35.051,50c0-10.578-3.471-21.655-6.829-32.367c-0.687-2.191-1.365-4.354-2.003-6.483   c-0.635-2.116,0.565-4.346,2.682-4.98c2.116-0.638,4.346,0.565,4.98,2.682c0.63,2.098,1.298,4.23,1.975,6.39   C39.393,26.527,43.051,38.198,43.051,50c0,11.802-3.657,23.472-7.194,34.758c-0.677,2.16-1.345,4.293-1.975,6.392   C33.362,92.882,31.772,94.001,30.052,94.001z"/></g><g><path d="M69.948,94.001c-1.721,0-3.31-1.119-3.829-2.852c-0.63-2.1-1.299-4.233-1.976-6.395C60.606,73.47,56.95,61.801,56.95,50   c0-11.801,3.657-23.471,7.193-34.756c0.677-2.161,1.346-4.294,1.976-6.393c0.635-2.116,2.864-3.315,4.98-2.682   c2.116,0.635,3.316,2.865,2.682,4.981c-0.639,2.129-1.316,4.294-2.004,6.486C68.42,28.347,64.95,39.423,64.95,50   c0,10.576,3.471,21.652,6.827,32.363c0.687,2.192,1.365,4.357,2.004,6.487c0.635,2.116-0.565,4.346-2.682,4.98   C70.716,93.946,70.328,94.001,69.948,94.001z"/></g><g><path d="M50,94c-2.209,0-4-1.791-4-4V10c0-2.209,1.791-4,4-4s4,1.791,4,4v80C54,92.209,52.209,94,50,94z"/></g><text x="0" y="115" fill="#000000" font-size="5px" font-weight="bold" font-family="'Helvetica Neue', Helvetica, Arial-Unicode, Arial, Sans-serif">Created by Attilio Baghino</text><text x="0" y="120" fill="#000000" font-size="5px" font-weight="bold" font-family="'Helvetica Neue', Helvetica, Arial-Unicode, Arial, Sans-serif">from the Noun Project</text></svg>